<?xml version="1.0" encoding="iso-8859-1"?>
<!-- Generator: Adobe Illustrator 19.0.0, SVG Export Plug-In . SVG Version: 6.00 Build 0)  -->
<svg version="1.1" id="Capa_1" xmlns="http://www.w3.org/2000/svg" xmlns:xlink="http://www.w3.org/1999/xlink" x="0px" y="0px"
	 viewBox="0 0 512 512" style="enable-background:new 0 0 512 512;" xml:space="preserve">
<circle style="fill:#485C96;" cx="256.01" cy="256" r="245.951"/>
<path style="fill:#FFFFFF;" d="M116.716,234.115c10.943,0,19.807,8.865,19.807,19.807s-8.865,19.807-19.807,19.807H66.048
	c-10.943,0-19.817-8.865-19.817-19.807s8.875-19.807,19.817-19.807c0.04,0,0.08,0,0.131,0c1.295-12.067,11.505-21.464,23.913-21.464
	c12.479,0,22.729,9.497,23.944,21.645C114.909,234.175,115.802,234.115,116.716,234.115z"/>
<path style="fill:#FBC640;" d="M206.145,114.186c19.918,0,36.061,16.143,36.061,36.061c0,19.928-16.143,36.071-36.061,36.071
	c-19.928,0-36.071-16.143-36.071-36.071C170.074,130.329,186.217,114.186,206.145,114.186z"/>
<g>
	<path style="fill:#FFFFFF;" d="M386.078,95.242c10.943,0,19.817,8.875,19.817,19.817c0,10.933-8.875,19.807-19.817,19.807H335.41
		c-10.943,0-19.807-8.875-19.807-19.807c0-10.943,8.865-19.817,19.807-19.817c0.04,0,0.09,0.01,0.131,0.01
		c1.295-12.067,11.515-21.464,23.923-21.464c12.469,0,22.729,9.487,23.934,21.645C384.281,95.312,385.175,95.242,386.078,95.242z"/>
	<path style="fill:#FFFFFF;" d="M322.58,281.068c24.395,10.29,41.512,34.424,41.512,62.564c0,37.476-30.389,67.865-67.865,67.865
		c-28.14,0-52.274-17.117-62.564-41.512c8.102,3.423,17.006,5.311,26.363,5.311c37.476,0,67.865-30.389,67.865-67.865
		C327.891,298.084,326.003,289.17,322.58,281.068z"/>
</g>
<path style="fill:#8CE0FF;" d="M473.439,140.931l-0.05,0.02L38.611,371.049l-0.05,0.02C20.349,336.735,10.039,297.572,10.039,256
	c0-135.841,110.12-245.961,245.961-245.961C350.268,10.039,432.148,63.076,473.439,140.931z M405.896,115.059
	c0-10.943-8.875-19.817-19.817-19.817c-0.904,0-1.797,0.07-2.68,0.191c-1.205-12.157-11.465-21.645-23.934-21.645
	c-12.408,0-22.628,9.397-23.923,21.464c-0.04,0-0.09-0.01-0.131-0.01c-10.943,0-19.807,8.875-19.807,19.817
	c0,10.933,8.865,19.807,19.807,19.807h50.668C397.021,134.867,405.896,125.992,405.896,115.059z M242.206,150.247
	c0-19.918-16.143-36.061-36.061-36.061c-19.928,0-36.071,16.143-36.071,36.061c0,19.928,16.143,36.071,36.071,36.071
	C226.063,186.318,242.206,170.175,242.206,150.247z M136.523,253.922c0-10.943-8.865-19.807-19.807-19.807
	c-0.914,0-1.807,0.06-2.68,0.181c-1.215-12.147-11.465-21.645-23.944-21.645c-12.408,0-22.618,9.397-23.913,21.464
	c-0.05,0-0.09,0-0.131,0c-10.943,0-19.817,8.865-19.817,19.807s8.875,19.807,19.817,19.807h50.668
	C127.659,273.729,136.523,264.865,136.523,253.922z"/>
<path d="M142.536,372.124c-12.919,0-12.941,20.078,0,20.078C155.455,392.202,155.477,372.124,142.536,372.124z"/>
<path d="M234.921,334.31c12.919,0,12.941-20.078,0-20.078C222.001,314.231,221.98,334.31,234.921,334.31z"/>
<path d="M368.439,421.612c-12.919,0-12.941,20.078,0,20.078C381.359,441.69,381.38,421.612,368.439,421.612z"/>
<path d="M223.543,436.375c-12.919,0-12.941,20.078,0,20.078C236.463,456.453,236.484,436.375,223.543,436.375z"/>
<path d="M421.647,336.243c-12.919,0-12.941,20.078,0,20.078C434.567,356.322,434.588,336.243,421.647,336.243z"/>
<path d="M378.813,236.926c-12.919,0-12.941,20.078,0,20.078C391.732,257.004,391.754,236.926,378.813,236.926z"/>
<path d="M450.761,240.272c-12.919,0-12.941,20.078,0,20.078C463.68,260.35,463.701,240.272,450.761,240.272z"/>
<path d="M351.291,18.327c-5.146-2.063-10.991,0.432-13.056,5.578c-2.066,5.145,0.433,10.991,5.578,13.056
	c48.6,19.503,89.401,54.769,115.854,99.893L42.949,357.395C27.976,325.934,20.078,291.099,20.078,256
	C20.078,125.912,125.912,20.078,256,20.078c10.969,0,21.995,0.759,32.774,2.257c5.481,0.763,10.562-3.07,11.325-8.561
	c0.763-5.492-3.071-10.562-8.562-11.325C279.846,0.823,267.889,0,256,0C187.62,0,123.333,26.628,74.98,74.981S0,187.62,0,256
	c0,41.735,10.267,83.152,29.692,119.774C74.257,459.801,160.974,512,256,512c68.38,0,132.667-26.628,181.02-74.981
	S512,324.38,512,256c0-41.736-10.268-83.153-29.692-119.774C453.926,82.714,407.397,40.843,351.291,18.327z M256,491.922
	c-84.216,0-161.344-44.495-203.666-116.777l416.717-220.539c14.971,31.459,22.87,66.295,22.87,101.395
	C491.922,386.088,386.087,491.922,256,491.922z"/>
<path d="M252.245,150.247c0-25.419-20.681-46.1-46.1-46.1c-25.425,0-46.11,20.681-46.11,46.1c0,25.425,20.685,46.11,46.11,46.11
	C231.565,196.357,252.245,175.672,252.245,150.247z M206.145,176.279c-14.354,0-26.032-11.678-26.032-26.032
	c0-14.348,11.678-26.022,26.032-26.022c14.348,0,26.022,11.673,26.022,26.022C232.167,164.601,220.493,176.279,206.145,176.279z"/>
<path d="M216.184,88.205V76.178c0-5.545-4.495-10.039-10.039-10.039s-10.039,4.495-10.039,10.039v12.027
	c0,5.545,4.495,10.039,10.039,10.039S216.184,93.749,216.184,88.205z"/>
<path d="M161.17,116.867c2.569,0,5.139-0.98,7.099-2.94c3.92-3.92,3.92-10.277,0-14.198l-8.503-8.503
	c-3.92-3.92-10.277-3.92-14.198,0c-3.921,3.92-3.92,10.277,0,14.198l8.503,8.503C156.031,115.887,158.601,116.867,161.17,116.867z"
	/>
<path d="M130.51,141.764c-5.545,0-10.039,4.495-10.039,10.039c0,5.545,4.495,10.039,10.039,10.039h12.027
	c5.545,0,10.039-4.495,10.039-10.039c0-5.545-4.495-10.039-10.039-10.039H130.51z"/>
<path d="M159.765,212.381l8.503-8.503c3.92-3.92,3.92-10.277,0-14.198c-3.92-3.92-10.277-3.92-14.198,0l-8.503,8.503
	c-3.92,3.92-3.92,10.277,0,14.198c1.961,1.961,4.53,2.94,7.099,2.94S157.804,214.341,159.765,212.381z"/>
<path d="M196.106,215.411v12.027c0,5.545,4.495,10.039,10.039,10.039s10.039-4.495,10.039-10.039v-12.027
	c0-5.545-4.495-10.039-10.039-10.039S196.106,209.867,196.106,215.411z"/>
<path d="M252.525,212.381c1.961,1.961,4.53,2.94,7.099,2.94c2.569,0,5.138-0.98,7.099-2.94c3.92-3.92,3.92-10.277,0-14.198
	l-8.504-8.503c-3.919-3.92-10.277-3.92-14.197,0c-3.92,3.92-3.92,10.277,0,14.198L252.525,212.381z"/>
<path d="M281.771,161.842c5.544,0,10.039-4.495,10.039-10.039c0-5.545-4.496-10.039-10.039-10.039h-12.027
	c-5.544,0-10.039,4.495-10.039,10.039c0,5.545,4.496,10.039,10.039,10.039H281.771z"/>
<path d="M258.22,113.926l8.504-8.503c3.92-3.92,3.92-10.277,0-14.198c-3.921-3.92-10.277-3.92-14.198,0l-8.503,8.503
	c-3.92,3.92-3.92,10.277,0,14.198c1.961,1.961,4.53,2.94,7.099,2.94S256.26,115.887,258.22,113.926z"/>
<path d="M326.482,271.818c-3.763-1.587-8.115-0.736-11.003,2.153s-3.737,7.241-2.146,11.004c2.998,7.096,4.519,14.651,4.519,22.455
	c0,31.886-25.941,57.826-57.827,57.826c-7.803,0-15.359-1.521-22.455-4.519c-3.764-1.589-8.115-0.741-11.004,2.146
	c-2.889,2.887-3.742,7.238-2.153,11.003c12.21,28.946,40.399,47.649,71.815,47.649c42.956,0,77.904-34.948,77.904-77.904
	C374.132,312.217,355.427,284.027,326.482,271.818z M296.227,401.458c-15.335,0-29.635-6.002-40.207-16.223
	c1.329,0.066,2.664,0.1,4.005,0.1c42.957,0,77.905-34.948,77.905-77.904c0-1.34-0.033-2.675-0.1-4.005
	c10.221,10.572,16.222,24.871,16.222,40.206C354.053,375.518,328.113,401.458,296.227,401.458z"/>
<path d="M90.092,202.611c-14.704,0-27.36,9.278-32.102,22.568c-12.562,3.524-21.799,15.075-21.799,28.742
	c0,16.457,13.393,29.847,29.857,29.847h50.668c16.458,0,29.847-13.389,29.847-29.847c0-14.664-10.63-26.893-24.589-29.383
	C117.067,211.583,104.602,202.611,90.092,202.611z M115.409,244.24c0.414-0.057,0.853-0.086,1.307-0.086
	c5.386,0,9.768,4.382,9.768,9.768s-4.382,9.768-9.768,9.768H66.048c-5.392,0-9.778-4.382-9.778-9.768s4.387-9.768,9.778-9.768h0.131
	c5.13,0,9.434-3.867,9.982-8.968c0.765-7.124,6.754-12.496,13.931-12.496c7.236,0,13.236,5.418,13.954,12.604
	c0.271,2.715,1.635,5.201,3.779,6.889C109.969,243.871,112.703,244.61,115.409,244.24z"/>
<path d="M335.41,144.906h50.669c16.462,0,29.856-13.389,29.856-29.847c0-14.669-10.633-26.901-24.597-29.393
	c-4.901-12.952-17.36-21.918-31.874-21.918c-14.706,0-27.363,9.272-32.106,22.558c-12.558,3.525-21.793,15.08-21.793,28.752
	C305.564,131.517,318.953,144.906,335.41,144.906z M335.179,105.284c0.124,0.005,0.246,0.007,0.361,0.007
	c5.13,0,9.435-3.868,9.982-8.969c0.764-7.124,6.756-12.495,13.94-12.495c7.238,0,13.233,5.415,13.944,12.595
	c0.269,2.714,1.63,5.201,3.771,6.89c2.14,1.689,4.871,2.438,7.578,2.067c0.485-0.066,0.918-0.098,1.322-0.098
	c5.391,0,9.777,4.386,9.777,9.778c0,5.386-4.386,9.768-9.777,9.768H335.41c-5.386,0-9.767-4.382-9.767-9.768
	C325.642,109.745,329.9,105.407,335.179,105.284z"/>
<path d="M319.498,27.984c12.919,0,12.941-20.078,0-20.078C306.579,7.906,306.557,27.984,319.498,27.984z"/>
<g>
</g>
<g>
</g>
<g>
</g>
<g>
</g>
<g>
</g>
<g>
</g>
<g>
</g>
<g>
</g>
<g>
</g>
<g>
</g>
<g>
</g>
<g>
</g>
<g>
</g>
<g>
</g>
<g>
</g>
</svg>
